<svg width="41" height="40" viewBox="0 0 41 40" fill="none" xmlns="http://www.w3.org/2000/svg">
<path d="M13.8333 20L13.8333 13.3333C13.8333 9.65143 16.8181 6.66667 20.5 6.66667V6.66667C24.1819 6.66667 27.1666 9.65144 27.1666 13.3333L27.1666 20" stroke="#222222" stroke-width="2" stroke-linecap="round"/>
<path d="M6.86102 18.6678C7.00609 16.9269 7.07863 16.0565 7.65271 15.5282C8.2268 15 9.10027 15 10.8472 15H30.1528C31.8997 15 32.7732 15 33.3473 15.5282C33.9214 16.0565 33.9939 16.9269 34.139 18.6678L35.3195 32.8339C35.404 33.8474 35.4462 34.3542 35.1491 34.6771C34.852 35 34.3435 35 33.3264 35H7.6736C6.65655 35 6.14802 35 5.85092 34.6771C5.55382 34.3542 5.59605 33.8474 5.68051 32.8339L6.86102 18.6678Z" stroke="#222222" stroke-width="2"/>
</svg>
