<svg width="60" height="60" viewBox="0 0 60 60" fill="none" xmlns="http://www.w3.org/2000/svg">
<path d="M11.25 21.75C11.25 18.9497 11.25 17.5496 11.795 16.48C12.2743 15.5392 13.0392 14.7743 13.98 14.295C15.0496 13.75 16.4497 13.75 19.25 13.75H40.75C43.5503 13.75 44.9504 13.75 46.02 14.295C46.9608 14.7743 47.7257 15.5392 48.205 16.48C48.75 17.5496 48.75 18.9497 48.75 21.75V23.75V40.75C48.75 43.5503 48.75 44.9504 48.205 46.02C47.7257 46.9608 46.9608 47.7257 46.02 48.205C44.9504 48.75 43.5503 48.75 40.75 48.75H19.25C16.4497 48.75 15.0496 48.75 13.98 48.205C13.0392 47.7257 12.2743 46.9608 11.795 46.02C11.25 44.9504 11.25 43.5503 11.25 40.75V23.75V21.75Z" fill="#141326"/>
<path d="M13.98 48.205L14.207 47.7595L13.98 48.205ZM11.795 46.02L12.2405 45.793L11.795 46.02ZM46.02 48.205L45.793 47.7595L46.02 48.205ZM48.205 46.02L47.7595 45.793L48.205 46.02ZM46.02 14.295L45.793 14.7405L46.02 14.295ZM48.205 16.48L47.7595 16.707L48.205 16.48ZM13.98 14.295L14.207 14.7405L13.98 14.295ZM11.795 16.48L12.2405 16.707L11.795 16.48ZM21.75 8.75C21.75 8.47386 21.5261 8.25 21.25 8.25C20.9739 8.25 20.75 8.47386 20.75 8.75H21.75ZM20.75 18.75C20.75 19.0261 20.9739 19.25 21.25 19.25C21.5261 19.25 21.75 19.0261 21.75 18.75H20.75ZM39.25 8.75C39.25 8.47386 39.0261 8.25 38.75 8.25C38.4739 8.25 38.25 8.47386 38.25 8.75L39.25 8.75ZM38.25 18.75C38.25 19.0261 38.4739 19.25 38.75 19.25C39.0261 19.25 39.25 19.0261 39.25 18.75H38.25ZM19.25 14.25H40.75V13.25H19.25V14.25ZM40.75 48.25H19.25V49.25H40.75V48.25ZM48.25 21.75V23.75H49.25V21.75H48.25ZM48.25 23.75V40.75H49.25V23.75H48.25ZM11.75 40.75V23.75H10.75V40.75H11.75ZM11.75 23.75V21.75H10.75V23.75H11.75ZM48.75 23.25H11.25V24.25H48.75V23.25ZM19.25 48.25C17.8416 48.25 16.8154 48.2496 16.0067 48.1835C15.2039 48.1179 14.6596 47.9901 14.207 47.7595L13.7531 48.6505C14.3701 48.9649 15.0606 49.1096 15.9253 49.1802C16.7841 49.2504 17.8581 49.25 19.25 49.25V48.25ZM10.75 40.75C10.75 42.1419 10.7496 43.2159 10.8198 44.0747C10.8904 44.9394 11.0351 45.6299 11.3495 46.2469L12.2405 45.793C12.0099 45.3404 11.8821 44.7961 11.8165 43.9933C11.7504 43.1846 11.75 42.1584 11.75 40.75H10.75ZM14.207 47.7595C13.3603 47.3281 12.6719 46.6397 12.2405 45.793L11.3495 46.2469C11.8768 47.2818 12.7182 48.1232 13.7531 48.6505L14.207 47.7595ZM40.75 49.25C42.1419 49.25 43.2159 49.2504 44.0747 49.1802C44.9394 49.1096 45.6299 48.9649 46.2469 48.6505L45.793 47.7595C45.3404 47.9901 44.7961 48.1179 43.9933 48.1835C43.1846 48.2496 42.1584 48.25 40.75 48.25V49.25ZM48.25 40.75C48.25 42.1584 48.2496 43.1846 48.1835 43.9933C48.1179 44.7961 47.9901 45.3404 47.7595 45.793L48.6505 46.2469C48.9649 45.6299 49.1096 44.9394 49.1802 44.0747C49.2504 43.2159 49.25 42.1419 49.25 40.75H48.25ZM46.2469 48.6505C47.2818 48.1232 48.1232 47.2818 48.6505 46.2469L47.7595 45.793C47.3281 46.6397 46.6397 47.3281 45.793 47.7595L46.2469 48.6505ZM40.75 14.25C42.1584 14.25 43.1846 14.2504 43.9933 14.3165C44.7961 14.3821 45.3404 14.5099 45.793 14.7405L46.2469 13.8495C45.6299 13.5351 44.9394 13.3904 44.0747 13.3198C43.2159 13.2496 42.1419 13.25 40.75 13.25V14.25ZM49.25 21.75C49.25 20.3581 49.2504 19.2841 49.1802 18.4253C49.1096 17.5606 48.9649 16.8701 48.6505 16.2531L47.7595 16.707C47.9901 17.1596 48.1179 17.7039 48.1835 18.5067C48.2496 19.3154 48.25 20.3416 48.25 21.75H49.25ZM45.793 14.7405C46.6397 15.1719 47.3281 15.8603 47.7595 16.707L48.6505 16.2531C48.1232 15.2182 47.2818 14.3768 46.2469 13.8495L45.793 14.7405ZM19.25 13.25C17.8581 13.25 16.7841 13.2496 15.9253 13.3198C15.0606 13.3904 14.3701 13.5351 13.7531 13.8495L14.207 14.7405C14.6596 14.5099 15.2039 14.3821 16.0067 14.3165C16.8154 14.2504 17.8416 14.25 19.25 14.25V13.25ZM11.75 21.75C11.75 20.3416 11.7504 19.3154 11.8165 18.5067C11.8821 17.7039 12.0099 17.1596 12.2405 16.707L11.3495 16.2531C11.0351 16.8701 10.8904 17.5606 10.8198 18.4253C10.7496 19.2841 10.75 20.3581 10.75 21.75H11.75ZM13.7531 13.8495C12.7182 14.3768 11.8768 15.2182 11.3495 16.2531L12.2405 16.707C12.6719 15.8603 13.3603 15.1719 14.207 14.7405L13.7531 13.8495ZM20.75 8.75V18.75H21.75V8.75H20.75ZM38.25 8.75L38.25 18.75H39.25L39.25 8.75L38.25 8.75Z" fill="#DCA4FF"/>
<path d="M30 42.5L30 30" stroke="#DCA4FF" stroke-width="2" stroke-linecap="round"/>
<path d="M36.25 36.25L23.75 36.25" stroke="#DCA4FF" stroke-width="2" stroke-linecap="round"/>
</svg>
