<svg width="60" height="60" viewBox="0 0 60 60" fill="none" xmlns="http://www.w3.org/2000/svg">
<path d="M7.5 19C7.5 17.1144 7.5 16.1716 8.08579 15.5858C8.67157 15 9.61438 15 11.5 15H48.5C50.3856 15 51.3284 15 51.9142 15.5858C52.5 16.1716 52.5 17.1144 52.5 19V41C52.5 42.8856 52.5 43.8284 51.9142 44.4142C51.3284 45 50.3856 45 48.5 45H11.5C9.61438 45 8.67157 45 8.08579 44.4142C7.5 43.8284 7.5 42.8856 7.5 41V19Z" fill="#141326"/>
<circle cx="15" cy="37.5" r="2.5" fill="#DCA4FF"/>
<rect x="7.5" y="22.5" width="45" height="5" fill="#DCA4FF"/>
</svg>
