<svg width="30" height="31" viewBox="0 0 30 31" fill="none" xmlns="http://www.w3.org/2000/svg">
<path d="M4.375 11.523C4.375 10.4979 4.375 9.98538 4.57766 9.59525C4.74843 9.26649 5.01649 8.99843 5.34525 8.82766C5.73538 8.625 6.24792 8.625 7.273 8.625H22.727C23.7521 8.625 24.2646 8.625 24.6548 8.82766C24.9835 8.99843 25.2516 9.26649 25.4223 9.59525C25.625 9.98538 25.625 10.4979 25.625 11.523V20.727C25.625 21.7521 25.625 22.2646 25.4223 22.6548C25.2516 22.9835 24.9835 23.2516 24.6548 23.4223C24.2646 23.625 23.7521 23.625 22.727 23.625H7.273C6.24792 23.625 5.73538 23.625 5.34525 23.4223C5.01649 23.2516 4.74843 22.9835 4.57766 22.6548C4.375 22.2646 4.375 21.7521 4.375 20.727V11.523Z" stroke="#DCA4FF"/>
<path d="M4.375 13.625L25.625 13.625" stroke="#DCA4FF" stroke-linecap="round"/>
<circle cx="8.125" cy="19.875" r="0.625" fill="#DCA4FF"/>
</svg>
