<svg width="40" height="40" viewBox="0 0 40 40" fill="none" xmlns="http://www.w3.org/2000/svg">
<path d="M5.83325 13.7313C5.83325 12.7062 5.83325 12.1936 6.03591 11.8035C6.20668 11.4747 6.47474 11.2067 6.8035 11.0359C7.19363 10.8333 7.70617 10.8333 8.73125 10.8333H31.2686C32.2937 10.8333 32.8062 10.8333 33.1963 11.0359C33.5251 11.2067 33.7932 11.4747 33.9639 11.8035C34.1666 12.1936 34.1666 12.7062 34.1666 13.7313V27.9353C34.1666 28.9603 34.1666 29.4729 33.9639 29.863C33.7932 30.1918 33.5251 30.4598 33.1963 30.6306C32.8062 30.8333 32.2937 30.8333 31.2686 30.8333H8.73126C7.70617 30.8333 7.19363 30.8333 6.8035 30.6306C6.47474 30.4598 6.20668 30.1918 6.03591 29.863C5.83325 29.4729 5.83325 28.9603 5.83325 27.9353V13.7313Z" stroke="#DCA4FF"/>
<path d="M5.83325 17.5L34.1666 17.5" stroke="#DCA4FF" stroke-linecap="round"/>
<ellipse cx="10.8333" cy="25.8333" rx="0.833333" ry="0.833333" fill="#DCA4FF"/>
</svg>
