<svg width="31" height="30" viewBox="0 0 31 30" fill="none" xmlns="http://www.w3.org/2000/svg">
<path d="M4.875 11.023C4.875 9.99792 4.875 9.48538 5.07766 9.09525C5.24843 8.76649 5.51649 8.49843 5.84525 8.32766C6.23538 8.125 6.74792 8.125 7.773 8.125H23.227C24.2521 8.125 24.7646 8.125 25.1548 8.32766C25.4835 8.49843 25.7516 8.76649 25.9223 9.09525C26.125 9.48538 26.125 9.99792 26.125 11.023V20.227C26.125 21.2521 26.125 21.7646 25.9223 22.1548C25.7516 22.4835 25.4835 22.7516 25.1548 22.9223C24.7646 23.125 24.2521 23.125 23.227 23.125H7.773C6.74792 23.125 6.23538 23.125 5.84525 22.9223C5.51649 22.7516 5.24843 22.4835 5.07766 22.1548C4.875 21.7646 4.875 21.2521 4.875 20.227V11.023Z" stroke="#DCA4FF"/>
<path d="M4.875 13.125L26.125 13.125" stroke="#DCA4FF" stroke-linecap="round"/>
<circle cx="8.625" cy="19.375" r="0.625" fill="#DCA4FF"/>
</svg>
