<svg width="18" height="20" viewBox="0 0 18 20" fill="none" xmlns="http://www.w3.org/2000/svg">
<path d="M8.99996 18.3334C9.19886 18.3334 9.38959 18.2456 9.53021 18.0893L16.2802 10.5893C16.3567 10.5043 16.4158 10.4018 16.4533 10.2891C16.4909 10.1763 16.506 10.0558 16.4977 9.93594L16.0155 2.97177C16.0018 2.77338 15.9248 2.58695 15.7983 2.44619C15.6717 2.30542 15.504 2.21961 15.3255 2.20427L9.05771 1.66677C8.94981 1.65753 8.84139 1.67435 8.7399 1.71606C8.6384 1.75778 8.54623 1.8234 8.46971 1.90844L1.71971 9.40844C1.57911 9.56471 1.50012 9.77663 1.50012 9.9976C1.50012 10.2186 1.57911 10.4305 1.71971 10.5868L8.46971 18.0868C8.53915 18.1646 8.62173 18.2265 8.71272 18.2688C8.80371 18.3111 8.90132 18.3331 8.99996 18.3334ZM9.28646 3.3601L14.5695 3.81177L14.976 9.68177L8.99996 16.3218L3.31046 10.0001L9.28646 3.3601ZM10.8322 7.96427C10.6224 7.7312 10.4795 7.43423 10.4216 7.11092C10.3637 6.7876 10.3933 6.45246 10.5068 6.14789C10.6204 5.84332 10.8126 5.58299 11.0593 5.39983C11.306 5.21668 11.596 5.11891 11.8927 5.11891C12.1894 5.11891 12.4794 5.21668 12.7261 5.39983C12.9728 5.58299 13.1651 5.84332 13.2786 6.14789C13.3921 6.45246 13.4218 6.7876 13.3639 7.11092C13.3059 7.43423 13.163 7.7312 12.9532 7.96427C12.6719 8.27672 12.2905 8.45225 11.8927 8.45225C11.495 8.45225 11.1135 8.27672 10.8322 7.96427Z" fill="#141326"/>
</svg>
