<svg width="20" height="20" viewBox="0 0 20 20" fill="none" xmlns="http://www.w3.org/2000/svg">
<path d="M18.3334 5.83333H15.8334V3.33333C15.8334 3.11232 15.7456 2.90036 15.5893 2.74408C15.433 2.5878 15.2211 2.5 15 2.5H1.66671C1.44569 2.5 1.23373 2.5878 1.07745 2.74408C0.921171 2.90036 0.833374 3.11232 0.833374 3.33333V13.3333C0.833374 13.5543 0.921171 13.7663 1.07745 13.9226C1.23373 14.0789 1.44569 14.1667 1.66671 14.1667H4.16671V16.6667C4.16671 16.8877 4.2545 17.0996 4.41078 17.2559C4.56706 17.4122 4.77903 17.5 5.00004 17.5H18.3334C18.5544 17.5 18.7663 17.4122 18.9226 17.2559C19.0789 17.0996 19.1667 16.8877 19.1667 16.6667V6.66667C19.1667 6.44565 19.0789 6.23369 18.9226 6.07741C18.7663 5.92113 18.5544 5.83333 18.3334 5.83333ZM2.50004 12.5V4.16667H14.1667V12.5H2.50004ZM17.5 15.8333H5.83337V14.1667H15C15.2211 14.1667 15.433 14.0789 15.5893 13.9226C15.7456 13.7663 15.8334 13.5543 15.8334 13.3333V7.5H17.5V15.8333ZM10 8.33333C10 8.66297 9.90229 8.9852 9.71916 9.25928C9.53602 9.53337 9.27572 9.74699 8.97118 9.87313C8.66663 9.99928 8.33152 10.0323 8.00822 9.96798C7.68492 9.90367 7.38795 9.74493 7.15486 9.51184C6.92177 9.27876 6.76304 8.98179 6.69873 8.65848C6.63442 8.33518 6.66743 8.00007 6.79357 7.69553C6.91972 7.39098 7.13334 7.13069 7.40742 6.94755C7.6815 6.76441 8.00374 6.66667 8.33337 6.66667C8.7754 6.66667 9.19932 6.84226 9.51188 7.15482C9.82444 7.46738 10 7.89131 10 8.33333ZM5.83337 8.33333C5.83337 8.55435 5.74558 8.76631 5.5893 8.92259C5.43302 9.07887 5.22105 9.16667 5.00004 9.16667H4.16671C3.94569 9.16667 3.73373 9.07887 3.57745 8.92259C3.42117 8.76631 3.33337 8.55435 3.33337 8.33333C3.33337 8.11232 3.42117 7.90036 3.57745 7.74408C3.73373 7.5878 3.94569 7.5 4.16671 7.5H5.00004C5.22105 7.5 5.43302 7.5878 5.5893 7.74408C5.74558 7.90036 5.83337 8.11232 5.83337 8.33333ZM13.3334 8.33333C13.3334 8.55435 13.2456 8.76631 13.0893 8.92259C12.933 9.07887 12.7211 9.16667 12.5 9.16667H11.6667C11.4457 9.16667 11.2337 9.07887 11.0775 8.92259C10.9212 8.76631 10.8334 8.55435 10.8334 8.33333C10.8334 8.11232 10.9212 7.90036 11.0775 7.74408C11.2337 7.5878 11.4457 7.5 11.6667 7.5H12.5C12.7211 7.5 12.933 7.5878 13.0893 7.74408C13.2456 7.90036 13.3334 8.11232 13.3334 8.33333Z" fill="#141326"/>
</svg>
