<svg width="60" height="60" viewBox="0 0 60 60" fill="none" xmlns="http://www.w3.org/2000/svg">
<rect width="60" height="60" rx="30" fill="#D9D9D9"/>
<path d="M23.3334 30L23.3334 23.3333C23.3334 19.6514 26.3181 16.6667 30 16.6667V16.6667C33.6819 16.6667 36.6667 19.6514 36.6667 23.3333L36.6667 30" stroke="#222222" stroke-width="2" stroke-linecap="round"/>
<path d="M16.361 28.6678C16.5061 26.9269 16.5786 26.0565 17.1527 25.5282C17.7268 25 18.6003 25 20.3472 25H39.6528C41.3997 25 42.2732 25 42.8473 25.5282C43.4214 26.0565 43.4939 26.9269 43.639 28.6678L44.8195 42.8339C44.904 43.8474 44.9462 44.3542 44.6491 44.6771C44.352 45 43.8435 45 42.8264 45H17.1736C16.1565 45 15.648 45 15.3509 44.6771C15.0538 44.3542 15.096 43.8474 15.1805 42.8339L16.361 28.6678Z" stroke="#222222" stroke-width="2"/>
</svg>
