<svg width="20" height="20" viewBox="0 0 20 20" fill="none" xmlns="http://www.w3.org/2000/svg">
<g clip-path="url(#clip0_146_134)">
<path d="M10 0.833252C8.18705 0.833252 6.41477 1.37087 4.90732 2.37811C3.39987 3.38536 2.22495 4.817 1.53115 6.49199C0.837346 8.16698 0.655815 10.0101 1.00951 11.7882C1.36321 13.5664 2.23625 15.1998 3.51823 16.4817C4.80021 17.7637 6.43356 18.6368 8.21172 18.9905C9.98988 19.3441 11.833 19.1626 13.508 18.4688C15.183 17.775 16.6146 16.6001 17.6218 15.0926C18.6291 13.5852 19.1667 11.8129 19.1667 9.99992C19.1638 7.56965 18.1972 5.23974 16.4787 3.52127C14.7602 1.80281 12.4303 0.836119 10 0.833252V0.833252ZM10 17.4999C8.51668 17.4999 7.06664 17.0601 5.83327 16.2359C4.5999 15.4118 3.63861 14.2405 3.07095 12.87C2.50329 11.4996 2.35477 9.9916 2.64416 8.53674C2.93354 7.08188 3.64785 5.74551 4.69674 4.69662C5.74564 3.64772 7.08201 2.93342 8.53687 2.64403C9.99172 2.35464 11.4997 2.50316 12.8702 3.07082C14.2406 3.63848 15.412 4.59977 16.2361 5.83314C17.0602 7.06651 17.5 8.51656 17.5 9.99992C17.4978 11.9884 16.707 13.8947 15.3009 15.3008C13.8949 16.7068 11.9885 17.4977 10 17.4999V17.4999ZM14.1667 9.99992C14.1667 10.2209 14.0789 10.4329 13.9226 10.5892C13.7664 10.7455 13.5544 10.8333 13.3334 10.8333H10.8334V13.3333C10.8334 13.5543 10.7456 13.7662 10.5893 13.9225C10.433 14.0788 10.2211 14.1666 10 14.1666C9.77903 14.1666 9.56707 14.0788 9.41079 13.9225C9.25451 13.7662 9.16671 13.5543 9.16671 13.3333V10.8333H6.66671C6.4457 10.8333 6.23374 10.7455 6.07746 10.5892C5.92118 10.4329 5.83338 10.2209 5.83338 9.99992C5.83338 9.77891 5.92118 9.56694 6.07746 9.41066C6.23374 9.25438 6.4457 9.16659 6.66671 9.16659H9.16671V6.66659C9.16671 6.44557 9.25451 6.23361 9.41079 6.07733C9.56707 5.92105 9.77903 5.83325 10 5.83325C10.2211 5.83325 10.433 5.92105 10.5893 6.07733C10.7456 6.23361 10.8334 6.44557 10.8334 6.66659V9.16659H13.3334C13.5544 9.16659 13.7664 9.25438 13.9226 9.41066C14.0789 9.56694 14.1667 9.77891 14.1667 9.99992Z" fill="#141326"/>
</g>
<defs>
<clipPath id="clip0_146_134">
<rect width="20" height="20" fill="white"/>
</clipPath>
</defs>
</svg>
