<svg width="42" height="46" viewBox="0 0 42 46" fill="none" xmlns="http://www.w3.org/2000/svg">
<path d="M1 16.5C1 9.42893 1 5.8934 3.1967 3.6967C5.3934 1.5 8.92893 1.5 16 1.5H26C33.0711 1.5 36.6066 1.5 38.8033 3.6967C41 5.8934 41 9.42893 41 16.5V33.569C41 40.2772 41 43.6313 38.8893 44.6572C36.7785 45.6831 34.1411 43.6109 28.8663 39.4664L27.1782 38.14C24.2123 35.8096 22.7293 34.6445 21 34.6445C19.2707 34.6445 17.7877 35.8096 14.8218 38.14L13.1337 39.4664C7.85887 43.6109 5.22147 45.6831 3.11073 44.6572C1 43.6313 1 40.2772 1 33.569V16.5Z" fill="#141326" stroke="#DCA4FF" stroke-width="1.4"/>
</svg>
