<svg width="19" height="20" viewBox="0 0 19 20" fill="none" xmlns="http://www.w3.org/2000/svg">
<path d="M11.68 11.7845V12.7055C11.68 13.3103 11.5961 13.9091 11.4331 14.4678C11.27 15.0266 11.0311 15.5342 10.7298 15.9619C10.4285 16.3895 10.0709 16.7287 9.67726 16.9601C9.28364 17.1916 8.86176 17.3107 8.43571 17.3107H6.3204C6.31039 17.8144 6.20354 18.3046 6.0114 18.7283C5.81926 19.152 5.54916 19.4931 5.2303 19.7146C4.96438 19.9032 4.67108 20.001 4.3738 20.0001C3.93404 20.0038 3.50636 19.796 3.16042 19.4106L0.753126 16.7304C0.51867 16.4722 0.328923 16.1412 0.198391 15.7629C0.0678597 15.3845 0 14.9689 0 14.5476C0 14.1263 0.0678597 13.7106 0.198391 13.3323C0.328923 12.954 0.51867 12.623 0.753126 12.3647L3.16042 9.68453C3.45046 9.35596 3.80063 9.15191 4.16965 9.09643C4.53868 9.04094 4.91118 9.13634 5.24328 9.37138C5.6855 9.67162 6.02607 10.208 6.19063 10.8635H11.0117C11.0985 10.8598 11.185 10.8808 11.266 10.9255C11.347 10.9701 11.4208 11.0374 11.4832 11.1233C11.5455 11.2092 11.595 11.3119 11.6289 11.4255C11.6627 11.5391 11.6801 11.6612 11.68 11.7845Z" fill="#141326"/>
<path d="M18.0019 5.46605C18.0019 5.88727 17.9341 6.30292 17.8037 6.68125C17.6732 7.05957 17.4836 7.39056 17.2492 7.6489L14.8419 10.3291C14.4911 10.716 14.0597 10.9266 13.6155 10.9278C13.3183 10.9286 13.025 10.8309 12.759 10.6423C12.3168 10.342 11.9762 9.80562 11.8117 9.15018H6.97113C6.79904 9.15018 6.634 9.05315 6.51231 8.88042C6.39063 8.70769 6.32227 8.47342 6.32227 8.22915V7.30812C6.32227 6.08675 6.66408 4.91541 7.27251 4.05178C7.88094 3.18814 8.70615 2.70295 9.5666 2.70295H11.6819C11.6898 2.18805 11.7989 1.68653 11.997 1.25498C12.195 0.823437 12.4741 0.479046 12.8027 0.260673C13.1313 0.0422994 13.4963 -0.0413639 13.8567 0.0191246C14.217 0.079613 14.5582 0.281845 14.8419 0.603L17.2492 3.28321C17.4836 3.54155 17.6732 3.87253 17.8037 4.25086C17.9341 4.62919 18.0019 5.04484 18.0019 5.46605V5.46605Z" fill="#141326"/>
</svg>
