<svg width="20" height="20" viewBox="0 0 20 20" fill="none" xmlns="http://www.w3.org/2000/svg">
<path d="M10 6.36364C9.2808 6.36364 8.57774 6.57691 7.97975 6.97647C7.38175 7.37604 6.91567 7.94397 6.64044 8.60842C6.36521 9.27288 6.2932 10.004 6.43351 10.7094C6.57382 11.4148 6.92015 12.0627 7.4287 12.5713C7.93726 13.0799 8.5852 13.4262 9.29058 13.5665C9.99597 13.7068 10.7271 13.6348 11.3916 13.3596C12.056 13.0843 12.624 12.6183 13.0235 12.0203C13.4231 11.4223 13.6364 10.7192 13.6364 10C13.6364 9.03558 13.2532 8.11065 12.5713 7.4287C11.8893 6.74675 10.9644 6.36364 10 6.36364ZM10 11.8182C9.6404 11.8182 9.28887 11.7115 8.98987 11.5118C8.69087 11.312 8.45783 11.028 8.32022 10.6958C8.18261 10.3636 8.1466 9.99798 8.21675 9.64529C8.28691 9.2926 8.46007 8.96863 8.71435 8.71435C8.96863 8.46007 9.2926 8.28691 9.64529 8.21675C9.99798 8.1466 10.3636 8.18261 10.6958 8.32022C11.028 8.45783 11.312 8.69087 11.5118 8.98987C11.7115 9.28887 11.8182 9.6404 11.8182 10C11.8182 10.4822 11.6266 10.9447 11.2856 11.2856C10.9447 11.6266 10.4822 11.8182 10 11.8182ZM18.1727 7.27273H16.7409C16.7336 7.25273 16.7082 7.17546 16.6991 7.15546L17.7082 6.14636C18.0505 5.80359 18.2427 5.33897 18.2427 4.85455C18.2427 4.37012 18.0505 3.9055 17.7082 3.56273L16.4355 2.29C16.2661 2.12007 16.0647 1.98534 15.843 1.8936C15.6213 1.80186 15.3836 1.75491 15.1436 1.75545C14.904 1.75515 14.6667 1.80221 14.4453 1.89395C14.2239 1.98569 14.0228 2.12028 13.8536 2.29L12.7909 3.28364L12.7273 3.25455V1.82636C12.7268 1.34197 12.5341 0.877572 12.1915 0.53514C11.8489 0.192709 11.3844 0.000240632 10.9 0H9.1C8.61561 0.000240632 8.15111 0.192709 7.80851 0.53514C7.46591 0.877572 7.27321 1.34197 7.27273 1.82636V3.24182L7.19455 3.28636L7.15546 3.30091L6.15 2.29273C5.98078 2.12274 5.7796 1.98791 5.55805 1.89601C5.33649 1.80412 5.09895 1.75696 4.85909 1.75727C4.61915 1.75672 4.38146 1.80368 4.15975 1.89542C3.93804 1.98716 3.73667 2.12189 3.56727 2.29182L2.29455 3.56455C1.95225 3.90732 1.75998 4.37194 1.75998 4.85636C1.75998 5.34079 1.95225 5.80541 2.29455 6.14818L3.29455 7.18727C3.28273 7.21364 3.26455 7.24455 3.25545 7.27182H1.82727C1.34272 7.27206 0.87809 7.46465 0.535462 7.80728C0.192834 8.14991 0.000240889 8.61454 0 9.09909V10.9009C0.000481682 11.3853 0.193181 11.8497 0.535783 12.1921C0.878385 12.5346 1.34288 12.727 1.82727 12.7273H3.25909C3.26636 12.7473 3.29182 12.8245 3.30091 12.8445L2.29182 13.8536C1.94952 14.1964 1.75726 14.661 1.75726 15.1455C1.75726 15.6299 1.94952 16.0945 2.29182 16.4373L3.56455 17.71C3.91269 18.042 4.37529 18.2272 4.85636 18.2272C5.33744 18.2272 5.80004 18.042 6.14818 17.71L7.16182 16.6964C7.18182 16.7064 7.25273 16.7391 7.27182 16.7473V18.1755C7.27278 18.6597 7.46582 19.1238 7.80856 19.4658C8.15131 19.8079 8.61577 20 9.1 20H10.9C11.3844 19.9998 11.8489 19.8073 12.1915 19.4649C12.5341 19.1224 12.7268 18.658 12.7273 18.1736V16.7582L12.8445 16.6991L13.8527 17.7073C14.2008 18.0398 14.6636 18.2253 15.145 18.2253C15.6264 18.2253 16.0892 18.0398 16.4373 17.7073L17.71 16.4345C18.0523 16.0918 18.2446 15.6271 18.2446 15.1427C18.2446 14.6583 18.0523 14.1937 17.71 13.8509L16.71 12.8118C16.7218 12.7855 16.74 12.7545 16.7491 12.7273H18.1727C18.6571 12.727 19.1216 12.5346 19.4642 12.1921C19.8068 11.8497 19.9995 11.3853 20 10.9009V9.09909C19.9995 8.6147 19.8068 8.1503 19.4642 7.80787C19.1216 7.46544 18.6571 7.27297 18.1727 7.27273ZM18.1727 10.9091H16.7464C16.3785 10.9199 16.0215 11.0368 15.7185 11.2458C15.4156 11.4548 15.1794 11.7469 15.0386 12.0869C14.8978 12.427 14.8583 12.8005 14.9248 13.1625C14.9913 13.5245 15.1611 13.8595 15.4136 14.1273L16.4218 15.1491L15.1364 16.4218L14.1273 15.4136C13.8596 15.1611 13.5246 14.9914 13.1627 14.9248C12.8008 14.8582 12.4273 14.8977 12.0873 15.0384C11.7473 15.1791 11.4552 15.4151 11.2462 15.718C11.0371 16.0208 10.9201 16.3776 10.9091 16.7455L10.9 18.1818L9.09091 18.1736V16.7455C9.08639 16.3743 8.97078 16.0131 8.759 15.7083C8.54721 15.4035 8.24897 15.1691 7.90273 15.0355C7.66761 14.9376 7.41556 14.887 7.16091 14.8864C6.92208 14.8853 6.68539 14.9314 6.46436 15.0218C6.24333 15.1123 6.04229 15.2455 5.87273 15.4136L4.85091 16.4218L3.57818 15.1364L4.58545 14.1291C4.83853 13.8615 5.00879 13.5263 5.07569 13.1641C5.14259 12.8019 5.10328 12.4281 4.9625 12.0877C4.82172 11.7473 4.58548 11.455 4.28227 11.2458C3.97906 11.0367 3.62182 10.9198 3.25364 10.9091L1.81818 10.9009L1.82727 9.09091H3.25364C3.62154 9.0801 3.97847 8.96317 4.28146 8.7542C4.58445 8.54524 4.82057 8.25314 4.96139 7.91309C5.10222 7.57303 5.14174 7.19952 5.07521 6.83752C5.00867 6.47552 4.83891 6.14048 4.58636 5.87273L3.57818 4.85091L4.86364 3.57818L5.87273 4.58636C6.13473 4.84289 6.4669 5.01598 6.82725 5.08378C7.1876 5.15158 7.55996 5.11104 7.89727 4.96727L7.91364 4.96091C8.25748 4.82605 8.55322 4.59159 8.76296 4.28758C8.97271 3.98358 9.0869 3.62387 9.09091 3.25455L9.1 1.81818L10.9091 1.82636V3.25455C10.909 3.61293 11.0149 3.96335 11.2133 4.26177C11.4118 4.56019 11.694 4.7933 12.0245 4.93182C12.0482 4.94364 12.0764 4.95636 12.1036 4.96727C12.4408 5.11108 12.813 5.15165 13.1732 5.08385C13.5335 5.01604 13.8655 4.84291 14.1273 4.58636L15.1491 3.57818L16.4218 4.86364L15.4145 5.87091C15.1615 6.13853 14.9912 6.47366 14.9243 6.83587C14.8574 7.19808 14.8967 7.57191 15.0375 7.91228C15.1783 8.25266 15.4145 8.54504 15.7177 8.75417C16.0209 8.96329 16.3782 9.08024 16.7464 9.09091H18.1727L18.1818 9.09909L18.1727 10.9091Z" fill="#919191"/>
</svg>
