<svg width="30" height="31" viewBox="0 0 30 31" fill="none" xmlns="http://www.w3.org/2000/svg">
<path d="M5.625 8.625V8.625C5.625 7.24429 6.74429 6.125 8.125 6.125L22.4107 6.125C22.6102 6.125 22.71 6.125 22.7901 6.15306C22.9338 6.20331 23.0467 6.31624 23.0969 6.45986C23.125 6.54005 23.125 6.63979 23.125 6.83929V6.83929C23.125 8.03624 23.125 8.63472 22.9566 9.11584C22.6551 9.97758 21.9776 10.6551 21.1158 10.9566C20.6347 11.125 20.0362 11.125 18.8393 11.125H18.75M5.625 8.625V8.625C5.625 10.0057 6.74429 11.125 8.125 11.125L22.375 11.125C23.3178 11.125 23.7892 11.125 24.0821 11.4179C24.375 11.7108 24.375 12.1822 24.375 13.125L24.375 16.125M5.625 8.625L5.625 20.875C5.625 22.7606 5.625 23.7034 6.21079 24.2892C6.79657 24.875 7.73938 24.875 9.625 24.875L22.375 24.875C23.3178 24.875 23.7892 24.875 24.0821 24.5821C24.375 24.2892 24.375 23.8178 24.375 22.875V21.125M24.375 21.125H21.375C20.4322 21.125 19.9608 21.125 19.6679 20.8321C19.375 20.5392 19.375 20.0678 19.375 19.125V18.125C19.375 17.1822 19.375 16.7108 19.6679 16.4179C19.9608 16.125 20.4322 16.125 21.375 16.125H24.375M24.375 21.125V16.125" stroke="#222222"/>
</svg>
